 <svg
        xmlns="http://www.w3.org/2000/svg" 
        version="1.1" xmlnsXlink="http://www.w3.org/1999/xlink" xmlns:svgjs="http://svgjs.dev/svgjs" width="2000" height="2000" 
        viewBox="0 0 2000 2000"><g transform="matrix(1,0,0,1,0,0)"><svg viewBox="0 0 280 280" data-background-color="#f8f8f8" preserveAspectRatio="xMidYMid meet" height="2000" width="2000" xmlns="http://www.w3.org/2000/svg" xmlnsXlink="http://www.w3.org/1999/xlink"><g id="tight-bounds" transform="matrix(1,0,0,1,0,0)"><svg viewBox="0 0 280 280" height="280" 
        width="280"><g><svg viewBox="0 0 280 280" height="280" width="280"><g><svg viewBox="0 0 280 280" height="280" width="280"><g id="textblocktransform"><svg viewBox="0 0 280 280" height="280" width="280" id="textblock"><g><svg viewBox="0 0 280 280" height="280" width="280"><g transform="matrix(1,0,0,1,57.50420886156945,57.50420886156945)"><svg viewBox="0 0 164.9915822768611 164.9915822768611" 
        height="164.9915822768611" width="164.9915822768611"><g id="icon-0"><circle r="82" cx="82.49579113843055" cy="82.49579113843055" fill="#c8c8c8" data-fill-palette-color="accent"></circle>
        <svg xmlns="http://www.w3.org/2000/svg" xmlnsXlink="http://www.w3.org/1999/xlink" version="1.1" x="24.748737341529164" y="24.74873734152917" viewBox="7 7 26 26" enableBackground="new 0 0 40 40" xmlSpace="preserve" height="115.49410759380275" width="115.49410759380275" className="icon-jxe-0" data-fill-palette-color="quaternary" id="jxe-0">
        <path fillRule="evenodd" clipRule="evenodd" d="M28 7H12L11 9H29zM32 13H8L7 15H33zM30 10H10L9 12H31zM7 33H33V16H7zM14 22H16V24C16 24.6 16.6 25 17.4 25H22.7C23.5 25 24.1 24.6 24.1 24V22H26.1V24C26.1 25.7 24.7 27 22.9 27H17.3C15.5 27 14.1 25.7 14.1 24S14 22 14 22" fill="#f8f8f8" data-fill-palette-color="quaternary">
        </path></svg></g></svg></g>
        <g id="text-0"><path d="M24.944 86.55v0c2.825 0.942 5.156 2.566 6.993 4.871 1.846 2.3 2.778 4.872 2.794 7.713v0c-0.869 2.604-2.15 4.816-3.843 6.634v0c-3.032-1.4-7.952-3.236-14.762-5.506-6.816-2.273-11.621-3.516-14.415-3.728v0l0.042-0.937c0.948 0.05 1.771-0.021 2.469-0.213v0c0.251-1.572 0.408-3.133 0.471-4.681v0l0.806 0.042c0.237 0.648 0.417 1.417 0.538 2.307v0c2.093 1.151 6.628 2.891 13.605 5.218v0l0.094-0.152c-1.043-1.406-1.985-2.973-2.828-4.701-0.842-1.728-1.298-3.252-1.369-4.572v0c0.499-1.497 1.725-2.409 3.677-2.736 1.946-0.33 3.855-0.183 5.728 0.441zM25.695 90.418v0c-1.328-0.443-2.785-0.662-4.37-0.658-1.583-0.002-2.524 0.443-2.822 1.337v0c-0.318 0.952-0.025 2.331 0.877 4.138 0.907 1.814 1.833 3.106 2.779 3.874v0c4.043 1.348 6.683 2.121 7.92 2.318v0c1.128-1.222 1.915-2.504 2.362-3.845 0.449-1.348 0.467-2.479 0.053-3.395v0c-1.766-1.59-4.033-2.846-6.799-3.769z" fill="#61777f" data-fill-palette-color="primary">
        </path><path d="M41.07 77.926v0c0.753-1.379 0.87-3.175 0.351-5.388v0l0.578-0.162c1.24 2.56 1.719 5.117 1.438 7.671v0c-1.195 2.188-2.772 3.431-4.733 3.73-1.955 0.302-4.176-0.226-6.664-1.584-2.482-1.355-4.393-3.313-5.733-5.873-1.341-2.561-1.697-5.136-1.069-7.727v0c0.835-1.529 1.865-2.938 3.091-4.23v0l0.531 0.29c0.668 1.641 1.691 2.903 3.068 3.787v0l-0.452 0.828c-0.983-0.537-1.763-0.932-2.341-1.185v0c-0.863 0.867-1.567 1.802-2.114 2.802-0.55 1.007-0.703 2.001-0.461 2.982v0c1.139 1.563 2.877 2.983 5.215 4.259v0c3.513 1.918 6.031 2.464 7.555 1.639v0c0.695-0.375 1.275-0.988 1.74-1.839z" fill="#61777f" data-fill-palette-color="primary"></path><path d="M42.224 66.622v0c-2.343-1.838-3.991-4.152-4.945-6.941-0.959-2.793-0.971-5.528-0.034-8.204v0c1.185-1.51 2.659-2.901 4.422-4.174v0c-0.224-0.688-0.618-1.414-1.182-2.178v0l0.758-0.551c1.638 2.084 5.022 5.139 10.153 9.166v0c2.3 1.805 4.163 3.141 5.591 4.01v0c0.603-0.404 1.17-0.944 1.702-1.621v0l0.709 0.556c-1.06 1.495-2.038 3.184-2.935 5.068v0l-0.321 0.126c-1.359-1.466-3.016-2.966-4.971-4.501v0l-0.148 0.106c0.508 1.675 0.868 3.468 1.079 5.378 0.211 1.911 0.128 3.499-0.25 4.766v0c-0.97 1.236-2.429 1.679-4.377 1.33-1.948-0.339-3.698-1.118-5.251-2.336zM42.826 62.719v0c1.101 0.864 2.397 1.564 3.887 2.099 1.49 0.535 2.526 0.432 3.107-0.309v0c0.62-0.79 0.811-2.189 0.573-4.199-0.247-2.008-0.686-3.534-1.318-4.576v0c-3.353-2.631-5.576-4.25-6.671-4.857v0c-1.477 0.776-2.653 1.721-3.525 2.833-0.873 1.112-1.27 2.172-1.193 3.179v0c1.132 2.086 2.845 4.03 5.14 5.83z" fill="#61777f" data-fill-palette-color="primary"></path><path d="M74.657 40.913v0c1.439-1.086 2.386-2.751 2.841-4.994v0l0.635 0.06c0.048 2.762-0.625 5.332-2.021 7.712v0c-2.011 1.518-3.994 2.027-5.947 1.525-1.955-0.492-3.778-1.859-5.469-4.1-1.687-2.235-2.629-4.792-2.827-7.672-0.203-2.876 0.532-5.394 2.204-7.555v0c1.526-1.152 2.826-1.658 3.898-1.518 1.078 0.136 2.195 0.97 3.352 2.501v0c0.654 0.867 1.099 1.694 1.335 2.484v0c0.62-0.177 1.248-0.506 1.886-0.988v0l0.511 0.745c-0.136 0.103-0.286 0.216-0.45 0.339v0c-2.556 1.93-5.33 4.614-8.322 8.054v0c2.292 3.036 4.313 4.484 6.064 4.343v0c0.766-0.039 1.536-0.351 2.31-0.936zM70.125 30.999c-1.136-1.504-2.07-2.447-2.802-2.827-0.732-0.38-1.556-0.225-2.471 0.466-0.91 0.687-1.492 1.554-1.746 2.602v0c0.351 1.746 1.186 3.537 2.504 5.374v0c1.405-2.027 2.909-3.899 4.515-5.615z" fill="#61777f" data-fill-palette-color="primary">
        </path><path d="M93.139 16.932l-0.841 0.426c-0.507-0.999-0.93-1.764-1.269-2.297v0c-0.459-0.089-0.962 0.006-1.51 0.284-0.548 0.278-0.847 1.984-0.895 5.118v0l-0.026 1.851 4.199 2.775c2.606 1.726 4.502 2.866 5.688 3.421v0c0.025 0.049 0.331-0.026 0.92-0.226 0.585-0.205 1.018-0.379 1.298-0.521v0l0.408 0.804c-1.568 0.895-3.14 1.999-4.718 3.313v0l-0.352 0.075c-0.362-0.713-2.019-2.085-4.973-4.116v0l-2.622-1.749c0.117 1.74 0.08 3.735-0.111 5.984-0.194 2.243-0.557 3.725-1.087 4.446v0c-1.151 0.584-2.378 0.95-3.681 1.099v0l-0.274-0.539c0.347-1.716 0.087-3.586-0.78-5.613v0l0.841-0.426c0.504 0.993 0.925 1.755 1.264 2.288v0c0.459 0.089 0.962-0.006 1.51-0.284 0.548-0.278 0.849-2.357 0.902-6.236v0l0.009-1.682-3.078-2.103c-1.815-1.162-3.807-2.334-5.976-3.515v0c-0.711 0.108-1.45 0.357-2.218 0.746v0l-0.408-0.804c1.671-0.948 3.353-2.123 5.046-3.525v0l0.344 0.021c0.362 0.713 0.808 1.306 1.339 1.779 0.522 0.47 1.735 1.344 3.64 2.622v0l1.522 1.008c-0.051-1.866 0.005-3.748 0.168-5.646 0.16-1.889 0.487-3.169 0.981-3.84v0c1.151-0.584 2.378-0.95 3.681-1.099v0l0.274 0.539c-0.347 1.716-0.086 3.589 0.785 5.622z" fill="#61777f" data-fill-palette-color="primary">
        </path><path d="M102.432 20.383v0c-0.858-2.852-0.874-5.692-0.049-8.522 0.823-2.836 2.388-5.079 4.695-6.729v0c1.838-0.553 3.844-0.842 6.018-0.868v0c0.213-0.692 0.308-1.512 0.287-2.462v0l0.937-0.014c0.14 2.647 1.149 7.093 3.027 13.339v0c0.842 2.799 1.597 4.965 2.264 6.497v0c0.725 0.017 1.5-0.098 2.325-0.346v0l0.259 0.863c-1.727 0.612-3.499 1.43-5.316 2.455v0l-0.335-0.081c-0.268-1.981-0.759-4.161-1.475-6.542v0l-0.182 0.001c-0.548 1.663-1.286 3.336-2.213 5.02-0.927 1.684-1.909 2.935-2.947 3.753v0c-1.504 0.452-2.953-0.025-4.346-1.432-1.398-1.398-2.381-3.042-2.949-4.932zM105.171 17.537v0c0.403 1.341 1.06 2.659 1.97 3.954 0.91 1.295 1.817 1.807 2.719 1.536v0c0.961-0.289 1.923-1.324 2.885-3.104 0.954-1.785 1.473-3.285 1.556-4.501v0c-1.227-4.081-2.114-6.685-2.659-7.811v0c-1.655-0.215-3.16-0.12-4.514 0.287-1.354 0.407-2.289 1.045-2.805 1.913v0c-0.275 2.358 0.007 4.933 0.848 7.726z" fill="#61777f" data-fill-palette-color="primary"></path><path d="M156.809 19.929l-0.082 0.815c-1.38-0.101-2.55-0.127-3.512-0.078-0.955 0.049-1.83 0.12-2.625 0.215v0l-0.031-0.593c0.316-2.252 0.399-5.939 0.249-11.06v0c-0.011-0.225-0.023-0.454-0.035-0.686v0c-0.171-3.369-0.857-5.024-2.057-4.962v0c-1.023 0.052-2.243 0.815-3.659 2.288-1.416 1.474-2.349 2.824-2.799 4.051v0l0.331 9.953c0.979 0.149 1.979 0.385 3 0.709v0l-0.04 0.823c-1.615-0.15-2.923-0.2-3.926-0.149-0.996 0.051-1.895 0.124-2.697 0.219v0l-0.03-0.594c0.316-2.252 0.403-5.939 0.259-11.06v0c-0.011-0.225-0.023-0.454-0.035-0.686v0c-0.171-3.369-0.857-5.024-2.057-4.962v0c-1.03 0.052-2.246 0.815-3.649 2.288-1.395 1.473-2.322 2.822-2.779 4.049v0c0.211 4.147 0.537 7.468 0.978 9.962v0c0.779 0.131 1.694 0.358 2.742 0.681v0l-0.04 0.823c-1.615-0.15-3.135-0.19-4.56-0.118-1.432 0.073-2.871 0.231-4.315 0.476v0l-0.174-0.802c0.84-0.419 1.668-0.748 2.483-0.987v0c0.16-1.957 0.176-4.208 0.047-6.752v0l-0.183-3.601c-0.133-2.626-0.351-4.95-0.651-6.973v0c-0.7-0.19-1.477-0.263-2.33-0.22v0l-0.045-0.901c1.823-0.182 3.736-0.552 5.739-1.112v0l0.305 0.159c-0.214 1.987-0.257 4.225-0.131 6.715v0l0.176 0.032c0.846-1.39 1.976-2.832 3.391-4.326 1.415-1.487 2.712-2.476 3.891-2.968v0c2.571-0.131 3.973 2.092 4.206 6.67v0l0.176 0.032c0.846-1.39 1.973-2.832 3.381-4.326 1.415-1.487 2.712-2.476 3.89-2.967v0c2.571-0.131 3.971 2.048 4.199 6.536v0c0.01 0.198 0.02 0.399 0.031 0.603v0l0.397 12.053c0.842 0.156 1.699 0.399 2.571 0.731z" fill="#61777f" data-fill-palette-color="primary"></path>
        <path d="M171.554 15.587v0c0.782-2.873 2.273-5.291 4.471-7.255 2.2-1.97 4.715-3.044 7.545-3.222v0c1.852 0.504 3.707 1.321 5.566 2.45v0c0.547-0.474 1.062-1.119 1.546-1.935v0l0.803 0.484c-1.283 2.319-2.781 6.625-4.495 12.918v0c-0.768 2.82-1.275 5.057-1.52 6.71v0c0.606 0.399 1.325 0.711 2.155 0.938v0l-0.237 0.869c-1.789-0.395-3.726-0.64-5.81-0.733v0l-0.241-0.246c0.822-1.822 1.559-3.932 2.213-6.33v0l-0.155-0.095c-1.346 1.12-2.857 2.149-4.535 3.086-1.678 0.937-3.174 1.479-4.488 1.623v0c-1.516-0.413-2.492-1.585-2.928-3.516-0.445-1.926-0.408-3.841 0.11-5.746zM175.384 14.624v0c-0.368 1.351-0.509 2.817-0.422 4.397 0.086 1.581 0.584 2.495 1.493 2.743v0c0.969 0.264 2.332-0.104 4.091-1.105 1.754-1.009 2.989-2.007 3.704-2.994v0c1.12-4.112 1.747-6.79 1.88-8.035v0c-1.29-1.059-2.617-1.774-3.981-2.146-1.364-0.371-2.495-0.326-3.393 0.138v0c-1.482 1.854-2.606 4.188-3.372 7.002z" fill="#61777f" data-fill-palette-color="primary"></path><path d="M199.936 33.223l-0.426 0.705c-1.22-0.837-2.605-1.623-4.153-2.359-1.548-0.736-3.096-1.376-4.644-1.923v0l0.227-0.788c0.938 0.03 1.823 0.133 2.655 0.309v0c1.07-1.647 2.151-3.621 3.244-5.922v0l1.547-3.257c1.128-2.375 2.04-4.524 2.735-6.447v0c-0.526-0.5-1.175-0.933-1.947-1.299v0l0.387-0.814c1.691 0.705 3.551 1.286 5.58 1.743v0l0.194 0.285c-1.131 1.648-2.231 3.598-3.301 5.849v0l0.14 0.112c0.856-0.863 2.091-1.744 3.704-2.641 1.613-0.897 2.931-1.356 3.954-1.376v0c1.16 0.551 2.2 1.298 3.12 2.242v0l-0.259 0.546c-1.576 0.771-2.902 2.122-3.978 4.053v0l-0.852-0.405c0.481-1.012 0.831-1.813 1.052-2.404v0c-0.216-0.42-0.596-0.759-1.139-1.017v0c-0.771-0.366-1.883-0.142-3.336 0.672-1.447 0.817-2.628 1.689-3.545 2.615v0c-1.782 3.751-3.07 6.828-3.864 9.233v0c1.208 0.8 2.176 1.563 2.905 2.288z" fill="#61777f" data-fill-palette-color="primary"></path><path d="M214.686 39.846v0c1.31 0.867 3.089 1.136 5.338 0.807v0l0.113 0.59c-2.656 1.018-5.245 1.279-7.765 0.782v0c-2.079-1.376-3.184-3.053-3.316-5.032-0.135-1.973 0.579-4.142 2.144-6.505 1.561-2.358 3.673-4.096 6.338-5.215 2.665-1.119 5.262-1.255 7.79-0.41v0c1.452 0.961 2.77 2.108 3.952 3.439v0l-0.334 0.504c-1.692 0.527-3.036 1.438-4.034 2.735v0l-0.786-0.52c0.618-0.934 1.078-1.678 1.379-2.232v0c-0.791-0.933-1.662-1.714-2.613-2.344-0.957-0.633-1.934-0.871-2.932-0.712v0c-1.654 1.002-3.216 2.613-4.686 4.835v0c-2.209 3.337-2.967 5.8-2.274 7.389v0c0.315 0.724 0.877 1.354 1.686 1.889z" fill="#61777f" data-fill-palette-color="primary"></path><path d="M239.669 48.243v0c2.2-2.328 2.821-3.944 1.863-4.85v0c-0.809-0.765-2.245-1.159-4.309-1.183-2.064-0.024-3.697 0.223-4.899 0.739v0c-2.852 3.018-5.027 5.548-6.526 7.59v0c0.444 0.654 0.911 1.472 1.403 2.454v0l-0.623 0.539c-1.007-1.271-2.029-2.397-3.066-3.377-1.042-0.985-2.151-1.915-3.325-2.791v0l0.459-0.68c0.883 0.318 1.693 0.689 2.43 1.113v0c1.526-1.236 3.163-2.78 4.913-4.631v0l5.482-5.8c5.17-5.47 8.44-9.427 9.81-11.871v0l0.824 0.426c-0.44 0.843-0.72 1.622-0.84 2.335v0c1.32 0.89 2.669 1.691 4.046 2.401v0l-0.378 0.713c-0.693-0.063-1.465-0.224-2.319-0.485v0c-1.926 1.412-5.416 4.791-10.468 10.136v0l0.098 0.149c1.629-0.312 3.5-0.446 5.613-0.404 2.103 0.042 3.759 0.339 4.967 0.889v0c1.271 1.201 1.55 2.551 0.839 4.049v0c-0.512 1.048-1.328 2.166-2.449 3.352v0c-0.178 0.189-0.375 0.397-0.592 0.625v0l-8.438 8.615c0.342 0.633 0.825 1.245 1.45 1.836v0l-0.619 0.655c-1.391-1.193-2.983-2.322-4.777-3.387v0l-0.096-0.331c2.237-1.701 5.187-4.424 8.85-8.17v0c0.217-0.19 0.443-0.409 0.677-0.656z" fill="#61777f" data-fill-palette-color="primary"></path><path d="M250.555 62.079v0l-2.857 2.201c-2.445 1.884-4.197 3.359-5.255 4.425v0c0.357 0.743 0.691 1.623 1.001 2.643v0l-0.699 0.435c-0.796-1.413-1.629-2.685-2.5-3.816-0.875-1.136-1.825-2.228-2.848-3.276v0l0.56-0.599c0.823 0.452 1.565 0.945 2.226 1.479v0c1.7-0.982 3.559-2.251 5.577-3.806v0l2.856-2.201c1.834-1.413 3.6-2.92 5.297-4.522v0c-0.272-0.722-0.653-1.402-1.145-2.04v0l0.714-0.55c1.46 1.66 2.927 3.094 4.402 4.303v0l0.044 0.341c-1.972 1.054-4.43 2.715-7.373 4.983zM262.782 53.627v0c-0.413 0.068-0.999 0.08-1.758 0.036-0.763-0.05-1.338-0.142-1.725-0.275v0c-0.03-0.408 0.03-0.985 0.181-1.73 0.146-0.75 0.305-1.317 0.475-1.698v0c0.38-0.077 0.894-0.059 1.542 0.053 0.642 0.117 1.167 0.273 1.576 0.467v0c0.045 0.439 0.04 0.986-0.016 1.642-0.056 0.655-0.147 1.157-0.275 1.505z" fill="#61777f" data-fill-palette-color="primary"></path><path d="M268.119 81.893v0c-2.362 1.289-5.27 2.013-8.723 2.172-3.448 0.155-6.632-0.176-9.553-0.994v0c-0.7-0.497-1.394-1.079-2.085-1.745v0c-0.354-1.246 1.269-3.44 4.87-6.58v0c1.577-1.344 3.358-2.786 5.34-4.328 1.977-1.538 3.333-2.652 4.069-3.342v0c-0.133-0.713-0.405-1.448-0.817-2.203v0l0.791-0.432c0.998 1.642 2.223 3.288 3.676 4.937v0l-0.005 0.354c-0.813 0.179-1.654 0.506-2.523 0.98-0.863 0.471-2.295 1.49-4.295 3.057-1.994 1.563-3.708 3.021-5.142 4.371-1.434 1.351-2.271 2.247-2.511 2.69-0.247 0.446-0.295 0.807-0.145 1.083v0c2.539 0.474 4.862 0.567 6.969 0.28 2.108-0.287 4.255-1.028 6.444-2.222v0c1.253-0.684 2.263-1.578 3.03-2.681v0c-0.171-0.856-0.442-1.622-0.812-2.3v0l0.811-0.396c1.503 2.51 3.159 4.738 4.967 6.683v0l-0.595 0.513c-0.428-0.186-1.111-0.596-2.048-1.229v0c-0.542 0.561-1.113 1.004-1.713 1.332z" fill="#61777f" data-fill-palette-color="primary"></path><path d="M259.917 100.924v0c0.598 1.701 1.897 3.108 3.896 4.222v0l-0.249 0.587c-2.646-0.792-4.891-2.214-6.735-4.266v0c-0.836-2.377-0.719-4.42 0.353-6.129 1.063-1.713 2.918-3.035 5.565-3.967 2.641-0.929 5.364-1.051 8.169-0.364 2.802 0.68 4.978 2.144 6.529 4.392v0c0.634 1.804 0.722 3.196 0.264 4.176-0.457 0.986-1.59 1.797-3.401 2.434v0c-1.024 0.36-1.948 0.533-2.772 0.518v0c-0.02 0.644 0.103 1.343 0.369 2.097v0l-0.864 0.261c-0.057-0.161-0.119-0.338-0.187-0.532v0c-1.063-3.022-2.779-6.48-5.148-10.374v0c-3.589 1.262-5.582 2.749-5.979 4.46v0c-0.195 0.742-0.132 1.57 0.19 2.485zM270.74 99.615c1.778-0.625 2.959-1.229 3.544-1.811 0.584-0.582 0.686-1.414 0.305-2.497-0.378-1.076-1.028-1.894-1.948-2.453v0c-1.77-0.196-3.73 0.056-5.881 0.755v0c1.505 1.954 2.832 3.956 3.98 6.006z" fill="#61777f" data-fill-palette-color="primary"></path><path d="M12.644 139.401c0-2.01 1.629-3.639 3.639-3.639 2.01 0 3.639 1.629 3.639 3.639 0 2.01-1.629 3.639-3.639 3.639-2.01 0-3.639-1.629-3.639-3.639z" fill="#61777f" data-fill-palette-color="primary"></path><path d="M270.806 139.401c0-2.01 1.629-3.639 3.639-3.639 2.01 0 3.639 1.629 3.639 3.639 0 2.01-1.629 3.639-3.639 3.639-2.01 0-3.639-1.629-3.639-3.639z" fill="#61777f" data-fill-palette-color="primary"></path></g><g id="text-1"><path d="M28.533 191.054v0c-2.825 0.942-5.664 1.043-8.516 0.303-2.857-0.732-5.146-2.229-6.866-4.492v0c-0.869-2.604-1.171-5.142-0.908-7.613v0c3.265-0.7 8.303-2.186 15.112-4.457 6.816-2.273 11.405-4.164 13.767-5.671v0l0.528 0.774c-0.788 0.529-1.404 1.08-1.846 1.652v0c0.743 1.408 1.554 2.75 2.433 4.027v0l-0.67 0.45c-0.579-0.376-1.184-0.883-1.815-1.522v0c-2.365 0.335-7.036 1.666-14.013 3.994v0l0.016 0.178c1.678 0.499 3.373 1.186 5.083 2.062 1.711 0.877 2.99 1.821 3.84 2.834v0c0.499 1.497 0.066 2.962-1.299 4.397-1.358 1.432-2.973 2.46-4.846 3.084zM25.611 188.412v0c1.328-0.443 2.625-1.142 3.89-2.097 1.268-0.948 1.752-1.87 1.454-2.764v0c-0.318-0.952-1.379-1.88-3.185-2.782-1.814-0.907-3.33-1.384-4.548-1.431v0c-4.043 1.348-6.618 2.315-7.726 2.901v0c-0.168 1.654-0.029 3.152 0.419 4.493 0.449 1.348 1.115 2.263 1.996 2.747v0c2.367 0.211 4.934-0.144 7.7-1.067z" fill="#61777f" data-fill-palette-color="primary"></path><path d="M26.534 208.813v0c0.753 1.379 2.2 2.448 4.343 3.208v0l-0.176 0.575c-2.824-0.341-5.234-1.321-7.231-2.939v0c-1.195-2.188-1.388-4.187-0.578-5.998 0.803-1.808 2.448-3.391 4.935-4.749 2.482-1.355 5.162-1.904 8.041-1.648 2.879 0.257 5.238 1.35 7.078 3.279v0c0.835 1.529 1.463 3.158 1.886 4.887v0l-0.53 0.29c-1.742-0.325-3.357-0.148-4.845 0.533v0l-0.452-0.828c0.983-0.537 1.737-0.98 2.263-1.328v0c-0.263-1.195-0.668-2.293-1.215-3.294-0.55-1.007-1.303-1.674-2.259-1.999v0c-1.931 0.113-4.065 0.807-6.402 2.083v0c-3.513 1.918-5.334 3.741-5.464 5.47v0c-0.06 0.788 0.142 1.607 0.606 2.458z" fill="#61777f" data-fill-palette-color="primary"></path><path d="M37.222 216.105v0c2.343-1.838 4.982-2.889 7.918-3.153 2.941-0.268 5.6 0.371 7.977 1.918v0c1.185 1.51 2.186 3.272 3.003 5.287v0c0.722-0.054 1.52-0.264 2.396-0.63v0l0.355 0.867c-2.413 1.095-6.186 3.656-11.316 7.683v0c-2.3 1.805-4.041 3.297-5.224 4.477v0c0.249 0.682 0.638 1.361 1.169 2.038v0l-0.709 0.557c-1.2-1.385-2.608-2.737-4.224-4.056v0l-0.047-0.341c1.747-0.971 3.598-2.224 5.554-3.759v0l-0.067-0.169c-1.748 0.096-3.575 0.019-5.481-0.23-1.906-0.249-3.429-0.708-4.57-1.376v0c-0.97-1.236-1.054-2.759-0.251-4.568 0.792-1.811 1.965-3.326 3.517-4.545zM40.871 217.618v0c-1.101 0.864-2.089 1.956-2.964 3.276-0.874 1.32-1.02 2.35-0.438 3.092v0c0.62 0.79 1.934 1.308 3.942 1.555 2.009 0.237 3.596 0.173 4.758-0.192v0c3.353-2.631 5.454-4.406 6.304-5.325v0c-0.403-1.62-1.041-2.986-1.913-4.098-0.873-1.112-1.808-1.75-2.805-1.914v0c-2.296 0.604-4.591 1.805-6.884 3.606z" fill="#61777f" data-fill-palette-color="primary"></path><path d="M64.679 251.107v0c1.439 1.086 3.299 1.541 5.581 1.363v0l0.117 0.627c-2.643 0.803-5.3 0.86-7.971 0.17v0c-2.011-1.518-3.043-3.286-3.095-5.302-0.062-2.015 0.753-4.143 2.443-6.383 1.687-2.235 3.888-3.842 6.605-4.82 2.71-0.983 5.334-0.967 7.869 0.049v0c1.526 1.152 2.369 2.263 2.528 3.333 0.165 1.074-0.331 2.377-1.487 3.909v0c-0.654 0.867-1.328 1.522-2.022 1.964v0c0.34 0.547 0.829 1.062 1.466 1.544v0l-0.576 0.695c-0.136-0.103-0.286-0.216-0.45-0.34v0c-2.556-1.93-5.898-3.862-10.025-5.797v0c-2.292 3.036-3.13 5.377-2.515 7.022v0c0.248 0.726 0.759 1.381 1.532 1.966zM72.972 244.031c1.136-1.504 1.786-2.661 1.952-3.469 0.165-0.808-0.21-1.558-1.126-2.249-0.91-0.687-1.904-1.009-2.981-0.966v0c-1.583 0.816-3.077 2.11-4.482 3.881v0c2.335 0.795 4.547 1.73 6.637 2.803z" fill="#61777f" data-fill-palette-color="primary"></path><path d="M96.242 255.755l-0.841-0.426c0.507-0.999 0.875-1.792 1.105-2.381v0c-0.199-0.423-0.573-0.773-1.121-1.051-0.548-0.278-2.101 0.488-4.659 2.3v0l-1.51 1.072 0.241 5.028c0.146 3.122 0.346 5.326 0.598 6.61v0c-0.025 0.049 0.217 0.252 0.725 0.609 0.511 0.351 0.907 0.598 1.186 0.74v0l-0.408 0.804c-1.648-0.737-3.468-1.354-5.459-1.852v0l-0.269-0.239c0.362-0.713 0.49-2.861 0.387-6.444v0l-0.138-3.148c-1.335 1.122-2.967 2.27-4.895 3.443-1.925 1.168-3.335 1.75-4.23 1.748v0c-1.151-0.584-2.171-1.358-3.06-2.322v0l0.274-0.539c1.59-0.733 2.946-2.047 4.068-3.944v0l0.841 0.427c-0.504 0.993-0.87 1.783-1.1 2.371v0c0.199 0.423 0.573 0.773 1.121 1.051 0.548 0.278 2.403-0.707 5.565-2.954v0l1.362-0.986-0.12-3.726c-0.134-2.151-0.365-4.451-0.692-6.899v0c-0.507-0.51-1.144-0.96-1.911-1.349v0l0.407-0.804c1.752 0.789 3.693 1.453 5.825 1.991v0l0.187 0.29c-0.362 0.713-0.577 1.423-0.645 2.131-0.071 0.699-0.06 2.194 0.033 4.485v0l0.085 1.824c1.476-1.143 3.028-2.209 4.656-3.198 1.619-0.986 2.845-1.478 3.678-1.476v0c1.151 0.584 2.171 1.358 3.06 2.323v0l-0.273 0.539c-1.59 0.733-2.947 2.05-4.073 3.952z" fill="#61777f" data-fill-palette-color="primary"></path><path d="M100.601 264.508v0c0.858-2.852 2.411-5.23 4.66-7.135 2.251-1.912 4.793-2.919 7.627-3.023v0c1.838 0.553 3.671 1.418 5.499 2.595v0c0.559-0.459 1.091-1.091 1.597-1.895v0l0.789 0.505c-1.343 2.285-2.954 6.55-4.832 12.796v0c-0.842 2.799-1.407 5.022-1.695 6.668v0c0.596 0.414 1.306 0.746 2.129 0.994v0l-0.259 0.863c-1.778-0.442-3.708-0.737-5.789-0.885v0l-0.234-0.252c0.869-1.8 1.662-3.89 2.377-6.271v0l-0.152-0.099c-1.374 1.084-2.913 2.073-4.614 2.966-1.702 0.893-3.212 1.395-4.529 1.505v0c-1.504-0.452-2.449-1.649-2.835-3.591-0.394-1.937-0.307-3.851 0.261-5.741zM104.455 263.645v0c-0.403 1.341-0.582 2.802-0.538 4.385 0.045 1.582 0.518 2.509 1.421 2.781v0c0.961 0.289 2.334-0.043 4.119-0.997 1.78-0.962 3.04-1.928 3.781-2.896v0c1.227-4.081 1.924-6.742 2.09-7.983v0c-1.262-1.093-2.57-1.843-3.923-2.25-1.354-0.407-2.486-0.391-3.395 0.049v0c-1.53 1.815-2.715 4.119-3.555 6.911z" fill="#61777f" data-fill-palette-color="primary"></path><path d="M155.776 279.198l-0.164 0.802c-1.362-0.24-2.524-0.385-3.486-0.433-0.955-0.049-1.833-0.066-2.633-0.052v0l0.03-0.594c0.543-2.209 0.999-5.868 1.368-10.977v0c0.011-0.225 0.023-0.454 0.035-0.686v0c0.171-3.369-0.344-5.085-1.544-5.146v0c-1.023-0.052-2.314 0.583-3.872 1.907-1.558 1.323-2.623 2.571-3.196 3.745v0l-0.679 9.936c0.959 0.247 1.93 0.584 2.914 1.01v0l-0.124 0.814c-1.591-0.313-2.888-0.495-3.89-0.546-0.996-0.051-1.898-0.069-2.706-0.056v0l0.03-0.593c0.543-2.209 1.002-5.868 1.379-10.977v0c0.011-0.225 0.023-0.454 0.034-0.686v0c0.171-3.369-0.344-5.085-1.544-5.145v0c-1.03-0.052-2.317 0.583-3.861 1.906-1.537 1.324-2.596 2.573-3.175 3.747v0c-0.211 4.147-0.223 7.484-0.037 10.01v0c0.762 0.21 1.649 0.528 2.66 0.955v0l-0.124 0.815c-1.591-0.313-3.099-0.506-4.525-0.579-1.432-0.073-2.879-0.061-4.34 0.036v0l-0.092-0.815c0.878-0.332 1.735-0.575 2.57-0.731v0c0.358-1.931 0.601-4.168 0.731-6.712v0l0.183-3.602c0.133-2.626 0.153-4.96 0.058-7.003v0c-0.677-0.26-1.442-0.412-2.295-0.455v0l0.046-0.9c1.832 0.004 3.773-0.171 5.822-0.525v0l0.288 0.189c-0.414 1.955-0.684 4.178-0.811 6.667v0l0.172 0.05c0.982-1.297 2.253-2.618 3.812-3.961 1.559-1.336 2.949-2.189 4.171-2.557v0c2.571 0.131 3.741 2.484 3.509 7.061v0l0.172 0.049c0.982-1.297 2.249-2.618 3.801-3.961 1.559-1.336 2.949-2.189 4.172-2.558v0c2.571 0.131 3.743 2.44 3.515 6.928v0c-0.01 0.198-0.02 0.399-0.031 0.604v0l-0.826 12.031c0.822 0.24 1.65 0.569 2.483 0.988z" fill="#61777f" data-fill-palette-color="primary"></path><path d="M173.225 269.349v0c-0.782-2.873-0.724-5.713 0.174-8.52 0.897-2.814 2.52-5.015 4.87-6.603v0c1.852-0.504 3.865-0.741 6.039-0.711v0c0.231-0.686 0.348-1.503 0.351-2.453v0l0.937 0.011c0.07 2.649 0.962 7.121 2.677 13.413v0c0.768 2.82 1.466 5.005 2.093 6.555v0c0.725 0.036 1.502-0.059 2.332-0.285v0l0.237 0.869c-1.743 0.567-3.536 1.338-5.379 2.315v0l-0.332-0.09c-0.216-1.987-0.65-4.18-1.304-6.578v0l-0.181-0.004c-0.592 1.648-1.373 3.301-2.344 4.96-0.971 1.659-1.986 2.884-3.045 3.674v0c-1.516 0.413-2.951-0.102-4.307-1.545-1.36-1.434-2.3-3.104-2.818-5.008zM176.037 266.576v0c0.368 1.351 0.99 2.686 1.866 4.005 0.876 1.319 1.768 1.854 2.678 1.606v0c0.969-0.264 1.957-1.273 2.966-3.027 1-1.759 1.558-3.245 1.673-4.458v0c-1.12-4.112-1.938-6.738-2.453-7.879v0c-1.649-0.259-3.155-0.202-4.52 0.169-1.364 0.371-2.315 0.985-2.854 1.839v0c-0.337 2.35-0.122 4.931 0.644 7.745z" fill="#61777f" data-fill-palette-color="primary"></path><path d="M208.739 264.11l0.278 0.775c-1.42 0.417-2.904 0.994-4.452 1.73-1.548 0.736-3.023 1.531-4.424 2.385v0l-0.468-0.674c0.616-0.709 1.255-1.33 1.916-1.863v0c-0.601-1.869-1.448-3.955-2.54-6.255v0l-1.548-3.258c-1.128-2.375-2.219-4.439-3.271-6.192v0c-0.72 0.092-1.465 0.322-2.236 0.688v0l-0.387-0.814c1.615-0.866 3.241-1.94 4.877-3.224v0l0.343 0.03c0.563 1.918 1.38 4.002 2.449 6.254v0l0.175-0.038c-0.128-1.209-0.031-2.723 0.293-4.54 0.324-1.817 0.801-3.129 1.431-3.935v0c1.16-0.551 2.396-0.885 3.709-1.002v0l0.259 0.546c-0.398 1.709-0.188 3.59 0.629 5.644v0l-0.851 0.405c-0.481-1.012-0.88-1.79-1.2-2.334v0c-0.462-0.098-0.965-0.018-1.508 0.24v0c-0.771 0.366-1.3 1.37-1.586 3.011-0.28 1.638-0.351 3.104-0.212 4.399v0c1.782 3.751 3.354 6.694 4.716 8.829v0c1.383-0.43 2.586-0.699 3.608-0.807z" fill="#61777f" data-fill-palette-color="primary"></path><path d="M223.826 252.766v0c1.31-0.867 2.253-2.4 2.828-4.599v0l0.588 0.127c-0.1 2.843-0.872 5.327-2.315 7.453v0c-2.079 1.376-4.055 1.738-5.927 1.086-1.869-0.646-3.586-2.151-5.151-4.515-1.561-2.358-2.335-4.982-2.323-7.873 0.012-2.89 0.9-5.334 2.666-7.33v0c1.452-0.961 3.022-1.726 4.71-2.294v0l0.334 0.504c-0.176 1.763 0.138 3.357 0.942 4.782v0l-0.786 0.52c-0.618-0.934-1.123-1.648-1.516-2.141v0c-1.168 0.364-2.228 0.86-3.179 1.489-0.957 0.633-1.557 1.44-1.801 2.421v0c0.276 1.914 1.149 3.982 2.619 6.202v0c2.209 3.337 4.18 4.998 5.913 4.981v0c0.79-0.007 1.589-0.278 2.398-0.813z" fill="#61777f" data-fill-palette-color="primary"></path><path d="M237.252 228.003v0c-2.2-2.328-3.779-3.039-4.737-2.134v0c-0.809 0.765-1.284 2.176-1.424 4.236-0.14 2.059 0.014 3.703 0.463 4.933v0c2.852 3.018 5.256 5.332 7.21 6.943v0c0.678-0.406 1.521-0.827 2.529-1.262v0l0.503 0.652c-1.326 0.934-2.508 1.891-3.545 2.871-1.042 0.985-2.033 2.039-2.973 3.163v0l-0.653-0.497c0.367-0.864 0.783-1.652 1.248-2.363v0c-1.148-1.593-2.598-3.315-4.347-5.167v0l-5.482-5.799c-5.17-5.47-8.936-8.958-11.3-10.464v0l0.472-0.799c0.817 0.487 1.579 0.81 2.284 0.971v0c0.963-1.268 1.838-2.569 2.625-3.905v0l0.691 0.418c-0.102 0.688-0.307 1.45-0.615 2.287v0c1.301 2.003 4.478 5.677 9.53 11.023v0l0.155-0.09c-0.219-1.644-0.249-3.519-0.088-5.626 0.161-2.097 0.55-3.733 1.167-4.909v0c1.271-1.201 2.634-1.404 4.09-0.609v0c1.018 0.57 2.087 1.448 3.209 2.634v0c0.178 0.189 0.375 0.397 0.591 0.625v0l8.126 8.911c0.651-0.305 1.289-0.754 1.915-1.345v0l0.619 0.655c-1.269 1.322-2.486 2.848-3.651 4.579v0l-0.335 0.077c-1.572-2.329-4.125-5.428-7.659-9.296v0c-0.177-0.227-0.383-0.465-0.618-0.713z" fill="#61777f" data-fill-palette-color="primary"></path><path d="M248.92 215.464v0l2.857 2.201c2.445 1.884 4.318 3.202 5.618 3.954v0c0.627-0.534 1.394-1.081 2.3-1.642v0l0.599 0.565c-1.164 1.13-2.181 2.26-3.052 3.39-0.875 1.136-1.689 2.332-2.442 3.589v0l-0.723-0.389c0.228-0.911 0.515-1.754 0.863-2.529v0c-1.383-1.394-3.084-2.868-5.102-4.423v0l-2.856-2.201c-1.834-1.413-3.741-2.736-5.722-3.97v0c-0.629 0.447-1.189 0.989-1.681 1.628v0l-0.714-0.55c1.233-1.835 2.246-3.619 3.038-5.354v0l0.32-0.129c1.522 1.639 3.755 3.592 6.697 5.86zM237.631 205.794v0c0.171 0.382 0.332 0.946 0.482 1.691 0.146 0.75 0.204 1.33 0.174 1.738v0c-0.387 0.133-0.96 0.222-1.718 0.266-0.763 0.05-1.351 0.041-1.764-0.027v0c-0.172-0.348-0.285-0.849-0.341-1.504-0.05-0.651-0.034-1.198 0.05-1.643v0c0.413-0.156 0.944-0.29 1.591-0.403 0.648-0.113 1.156-0.152 1.526-0.117z" fill="#61777f" data-fill-palette-color="primary"></path><path d="M257.191 190.943v0c2.362 1.289 4.543 3.344 6.544 6.163 1.995 2.817 3.438 5.674 4.33 8.574v0c-0.04 0.857-0.154 1.756-0.34 2.697v0c-0.857 0.972-3.58 0.792-8.168-0.538v0c-1.983-0.6-4.159-1.318-6.529-2.152-2.363-0.831-4.034-1.37-5.012-1.616v0c-0.528 0.497-0.999 1.124-1.411 1.879v0l-0.791-0.432c0.842-1.727 1.564-3.648 2.165-5.762v0l0.301-0.186c0.59 0.587 1.32 1.117 2.188 1.591 0.863 0.471 2.495 1.125 4.895 1.96 2.394 0.832 4.546 1.486 6.457 1.962 1.911 0.475 3.118 0.695 3.621 0.658 0.509-0.034 0.838-0.188 0.988-0.464v0c-0.974-2.392-2.152-4.396-3.533-6.014-1.381-1.618-3.166-3.024-5.353-4.218v0c-1.253-0.684-2.551-1.05-3.894-1.099v0c-0.627 0.607-1.125 1.249-1.495 1.926v0l-0.772-0.468c1.299-2.621 2.277-5.219 2.936-7.793v0l0.753 0.225c0.075 0.461 0.1 1.257 0.074 2.386v0c0.765 0.153 1.447 0.393 2.046 0.721z" fill="#61777f" data-fill-palette-color="primary"></path><path d="M275.54 183.373v0c0.598-1.701 0.467-3.611-0.395-5.731v0l0.563-0.302c1.567 2.274 2.428 4.789 2.581 7.543v0c-0.836 2.377-2.207 3.897-4.112 4.559-1.901 0.671-4.176 0.54-6.824-0.391-2.641-0.929-4.841-2.539-6.598-4.829-1.76-2.284-2.54-4.788-2.342-7.513v0c0.634-1.804 1.437-2.944 2.409-3.421 0.973-0.483 2.365-0.406 4.176 0.231v0c1.024 0.36 1.853 0.804 2.485 1.33v0c0.418-0.49 0.76-1.112 1.026-1.865v0l0.837 0.337c-0.057 0.161-0.119 0.338-0.187 0.532v0c-1.063 3.022-1.889 6.792-2.48 11.312v0c3.589 1.262 6.073 1.351 7.454 0.265v0c0.617-0.456 1.086-1.142 1.407-2.057zM266.281 177.619c-1.778-0.625-3.077-0.894-3.897-0.806-0.82 0.088-1.42 0.673-1.801 1.755-0.378 1.076-0.384 2.12-0.016 3.133v0c1.258 1.261 2.944 2.292 5.058 3.093v0c0.049-2.466 0.268-4.858 0.656-7.175z" fill="#61777f" data-fill-palette-color="primary"></path></g></svg></g></svg></g></svg></g></svg></g><defs></defs></svg><rect width="280" height="280" fill="none" stroke="none" visibility="hidden"></rect></g></svg></g>
</svg>